<svg width="110" height="100" viewBox="0 0 110 100" fill="none" xmlns="http://www.w3.org/2000/svg">
<path fill-rule="evenodd" clip-rule="evenodd" d="M16.5 100C7.3873 100 0 93.2843 0 85V15C0 6.71573 7.3873 0 16.5 0H93.5C102.613 0 110 6.71573 110 15V85C110 93.2843 102.613 100 93.5 100H16.5ZM33 55H11V85C11 87.7614 13.4624 90 16.5 90H33V55ZM66 55H44V90H66V55ZM99 55H77V90H93.5C96.5376 90 99 87.7614 99 85V55ZM33 10H16.5C13.4624 10 11 12.2386 11 15V45H33V10ZM66 10H44V45H66V10ZM93.5 10H77V45H99V15C99 12.2386 96.5376 10 93.5 10Z" fill="white"/>
</svg>
