<svg width="100" height="100" viewBox="0 0 100 100" fill="none" xmlns="http://www.w3.org/2000/svg">
<path fill-rule="evenodd" clip-rule="evenodd" d="M25 70H75C88.8071 70 100 81.1929 100 95C100 97.7614 97.7614 100 95 100C92.4358 100 90.3225 98.0698 90.0336 95.5831L89.9745 94.1186C89.5352 86.5362 83.4638 80.4648 75.8814 80.0255L75 80H25C16.7157 80 10 86.7157 10 95C10 97.7614 7.76142 100 5 100C2.23858 100 0 97.7614 0 95C0 81.5562 10.6115 70.5909 23.9156 70.0231L25 70ZM50 0C66.5685 0 80 13.4315 80 30C80 46.5685 66.5685 60 50 60C33.4315 60 20 46.5685 20 30C20 13.4315 33.4315 0 50 0ZM50 10C38.9543 10 30 18.9543 30 30C30 41.0457 38.9543 50 50 50C61.0457 50 70 41.0457 70 30C70 18.9543 61.0457 10 50 10Z" fill="white"/>
</svg>
